<svg width="512" height="512" xmlns="http://www.w3.org/2000/svg">
 <!-- Created with UXWing SVG Editor - https://uxwing.com/svg-icon-editor/ -->

 <g>
  <title>background</title>
  <rect x="-1" y="-1" width="514" height="514" id="canvas_background" fill="none"/>
  <g id="canvasGrid" display="none">
   <rect id="svg_7" width="100%" height="100%" x="0" y="0" stroke-width="0" fill="url(#gridpattern)"/>
  </g>
 </g>
 <g>
  <title>Layer 1</title>
  <ellipse fill="none" stroke="#ffffff" stroke-width="12.001" cx="257" cy="283.453125" id="svg_1" rx="187" ry="102"/>
  <path fill="#ffffff" stroke-width="12.001" d="m227.26,187.53896l23.50001,45.00001l23.50001,-45.00001l-47.00002,0z" id="svg_2" stroke="#ffffff"/>
  <path fill="#ffffff" stroke-width="12.001" d="m125.44922,237.35716l21.99999,-36.27675l21.99999,36.27675l-43.99998,0z" id="svg_3" stroke="#ffffff" transform="rotate(30 147.44921875000023,219.21878051757807) "/>
  <path fill="#ffffff" stroke-width="12.001" d="m340.44922,248.35716l21.99999,-36.27675l21.99999,36.27675l-43.99998,0z" id="svg_4" transform="rotate(-156 362.44921875,230.21878051757812) " stroke="#ffffff"/>
  <ellipse fill="#ffffff" stroke="#ffffff" stroke-width="12.001" cx="288.5" cy="283.953125" id="svg_5" rx="11.5" ry="10.5"/>
  <ellipse fill="#ffffff" stroke="#ffffff" stroke-width="12.001" cx="206.5" cy="280.953125" id="svg_6" rx="11.5" ry="10.5"/>
  <text fill="#000000" stroke-width="10" stroke-opacity="null" fill-opacity="null" x="291.917805" y="330.932291" id="svg_21" font-size="24" font-family="Helvetica, Arial, sans-serif" text-anchor="start" xml:space="preserve" transform="matrix(1.6255463471497364,0,0,1.371428608894348,-209.45195879272356,-105.73974321223795) " stroke="#ffffff">U</text>
 </g>
</svg>